HIERARCHY
ROOT Hips
{
	OFFSET 0.00 0.00 0.00
	CHANNELS 6 Xposition Yposition Zposition Xrotation Yrotation Zrotation
	JOINT RightUpLeg
	{
		OFFSET -4.47808 0.00000 0.00000
		CHANNELS 3 Xrotation Yrotation Zrotation
		JOINT RightLeg
		{
			OFFSET 0.00000 -16.40577 0.00000
			CHANNELS 3 Xrotation Yrotation Zrotation
			JOINT RightFoot
			{
				OFFSET 0.00000 -14.64414 0.00000
				CHANNELS 3 Xrotation Yrotation Zrotation
				JOINT RightToeBase
				{
					OFFSET 0.00000 -1.50274 5.60831
					CHANNELS 3 Xrotation Yrotation Zrotation
					End Site
					{
						OFFSET 0.00000 0.00000 2.95275
					}
				}
			}
		}
	}
	JOINT LeftUpLeg
	{
		OFFSET 4.47808 0.00000 0.00000
		CHANNELS 3 Xrotation Yrotation Zrotation
		JOINT LeftLeg
		{
			OFFSET 0.00000 -16.40577 0.00000
			CHANNELS 3 Xrotation Yrotation Zrotation
			JOINT LeftFoot
			{
				OFFSET 0.00000 -14.64414 0.00000
				CHANNELS 3 Xrotation Yrotation Zrotation
				JOINT LeftToeBase
				{
					OFFSET 0.00000 -1.50274 5.60831
					CHANNELS 3 Xrotation Yrotation Zrotation
					End Site
					{
						OFFSET 0.00000 0.00000 2.95275
					}
				}
			}
		}
	}
	JOINT Spine
	{
		OFFSET 0.00000 6.06821 0.00000
		CHANNELS 3 Xrotation Yrotation Zrotation
		JOINT RightShoulder
		{
			OFFSET 0.00000 10.01392 0.00000
			CHANNELS 3 Xrotation Yrotation Zrotation
			JOINT RightArm
			{
				OFFSET -7.19022 0.00000 0.00000
				CHANNELS 3 Xrotation Yrotation Zrotation
				JOINT RightForeArm
				{
					OFFSET -10.17747 0.00000 0.00000
					CHANNELS 3 Yrotation Zrotation Xrotation
					JOINT RightHand
					{
						OFFSET -8.39211 0.00000 0.00000
						CHANNELS 3 Xrotation Yrotation Zrotation
						End Site
						{
							OFFSET -3.93700 0.00000 0.00000
						}
						JOINT RightHandThumb1
						{
							OFFSET 0.00000 0.00000 0.00000
							CHANNELS 3 Xrotation Zrotation Yrotation
							End Site
							{
								OFFSET 0.00000 0.00000 3.93700
							}
						}
					}
				}
			}
		}
		JOINT LeftShoulder
		{
			OFFSET 0.00000 10.01392 0.00000
			CHANNELS 3 Xrotation Yrotation Zrotation
			JOINT LeftArm
			{
				OFFSET 7.19022 0.00000 0.00000
				CHANNELS 3 Xrotation Yrotation Zrotation
				JOINT LeftForeArm
				{
					OFFSET 10.17747 0.00000 0.00000
					CHANNELS 3 Yrotation Zrotation Xrotation
					JOINT LeftHand
					{
						OFFSET 8.39211 0.00000 0.00000
						CHANNELS 3 Xrotation Yrotation Zrotation
						End Site
						{
							OFFSET 3.93700 0.00000 0.00000
						}
						JOINT LeftHandThumb1
						{
							OFFSET 0.00000 0.00000 0.00000
							CHANNELS 3 Xrotation Zrotation Yrotation
							End Site
							{
								OFFSET 0.00000 0.00000 3.93700
							}
						}
					}
				}
			}
		}
		JOINT Head
		{
			OFFSET 0.00000 15.77748 0.00000
			CHANNELS 3 Xrotation Yrotation Zrotation
			End Site
			{
				OFFSET 0.00000 4.52755 0.00000
			}
		}
	}
}
MOTION
Frames: 22
Frame Time: 0.008333
 -3.2023 33.0913 -2.7496 9.8888 -3.7282 3.0812 -3.7743 -5.2796 -3.1558 0.6783 0.0000 0.0000 -12.0409 -5.0990 -1.6405 5.3429 -0.0000 0.0000 -3.4908 3.2554 1.6426 1.6948 -0.0000 0.0000 -10.9856 7.1458 -12.9313 10.9690 0.0000 0.0000 -13.5642 -0.8130 -0.0231 22.1394 -16.6274 -1.5520 -26.1036 -17.5992 82.5755 141.2080 0.0000 -55.0990 -16.5721 21.9600 38.5115 32.8623 0.0000 -24.3270 4.0992 21.6233 13.6252 -4.0484 -12.6832 -89.1982 -15.5121 -0.0000 10.3070 -0.0234 -0.2097 -6.3576 33.1476 -0.0000 26.2537 10.1055 -7.8310 -2.9899
 -3.2017 33.0913 -2.7511 9.9003 -3.7289 3.0871 -3.7883 -5.2489 -3.1608 0.6812 -0.0000 -0.0000 -12.0370 -5.1279 -1.6440 5.3288 -0.0000 -0.0000 -3.5038 3.2713 1.6380 1.6890 0.0000 -0.0000 -10.9632 7.1296 -12.9884 10.9062 -0.0000 -0.0000 -13.5725 -0.7999 -0.0305 22.1471 -16.6480 -1.5653 -26.1310 -17.7399 82.5533 141.1453 0.0000 -55.1737 -16.5051 21.9396 38.4166 32.8623 0.0000 -24.3270 4.1178 21.6276 13.6014 -4.0496 -12.6352 -89.1569 -15.5862 -0.0000 10.3132 -0.0219 -0.1990 -6.2825 33.1476 -0.0000 26.2537 10.1222 -7.8853 -2.9963
 -3.2008 33.0914 -2.7527 9.9090 -3.7216 3.0934 -3.8016 -5.2308 -3.1698 0.6876 -0.0000 0.0000 -12.0423 -5.1418 -1.6478 5.3238 0.0000 0.0000 -3.5139 3.2260 1.6314 1.6907 -0.0000 -0.0000 -10.9701 7.1555 -12.9481 10.9804 -0.0000 -0.0000 -13.5744 -0.8017 -0.0408 22.1345 -16.6598 -1.5803 -26.1416 -17.8451 82.5234 141.0795 0.0000 -55.2045 -16.5419 22.0006 38.4087 32.8623 0.0000 -24.3270 4.1271 21.6409 13.5801 -4.0568 -12.5662 -89.1230 -15.6341 -0.0000 10.3663 -0.0218 -0.2001 -6.2137 33.1476 -0.0000 26.2537 10.1357 -7.9442 -3.0283
 -3.2002 33.0912 -2.7533 9.9135 -3.7122 3.1011 -3.8016 -5.2056 -3.1798 0.6807 -0.0000 0.0000 -12.0481 -5.1646 -1.6512 5.3450 0.0000 0.0000 -3.5209 3.2097 1.6216 1.6931 -0.0000 -0.0000 -10.9843 7.1634 -12.8784 10.9942 0.0000 0.0000 -13.5794 -0.8159 -0.0476 22.1575 -16.6706 -1.6000 -26.1963 -17.9593 82.5361 140.9874 0.0000 -55.2554 -16.5137 22.0099 38.3472 32.8623 0.0000 -24.3270 4.1471 21.6564 13.5492 -4.0626 -12.5300 -89.0756 -15.6774 -0.0000 10.3445 -0.0202 -0.1875 -6.1529 33.1476 -0.0000 26.2537 10.1353 -7.9906 -3.0604
 -3.2000 33.0908 -2.7543 9.9232 -3.6997 3.1039 -3.8067 -5.1966 -3.1826 0.6741 0.0000 -0.0000 -12.0624 -5.1904 -1.6572 5.3947 0.0000 0.0000 -3.5329 3.1671 1.6196 1.6893 0.0000 -0.0000 -10.9632 7.1977 -12.9286 10.9239 0.0000 0.0000 -13.5877 -0.8315 -0.0532 22.1207 -16.6537 -1.6174 -26.1593 -18.0270 82.4864 140.8977 0.0000 -55.3354 -16.5116 22.0979 38.2379 32.8623 0.0000 -24.3270 4.1691 21.6734 13.5254 -4.0702 -12.4505 -89.0410 -15.7182 -0.0000 10.3457 -0.0216 -0.2028 -6.0766 33.1476 -0.0000 26.2537 10.1443 -8.0396 -3.1005
 -3.2000 33.0905 -2.7543 9.9257 -3.6943 3.1065 -3.8071 -5.1714 -3.1864 0.6746 -0.0000 -0.0000 -12.0664 -5.2123 -1.6712 5.3633 -0.0000 0.0000 -3.5360 3.1560 1.6169 1.6904 0.0000 0.0000 -10.9707 7.1978 -12.9229 10.9607 0.0000 0.0000 -13.5876 -0.8406 -0.0581 22.1399 -16.6346 -1.6173 -26.1801 -18.1046 82.4699 140.7946 0.0000 -55.4910 -16.4589 22.1397 38.0937 32.8623 0.0000 -24.3270 4.1777 21.6851 13.5037 -4.0666 -12.3967 -89.0034 -15.7465 -0.0000 10.3431 -0.0218 -0.2067 -6.0220 33.1476 -0.0000 26.2537 10.1491 -8.0796 -3.1446
 -3.2005 33.0904 -2.7542 9.9271 -3.6877 3.1075 -3.8066 -5.1633 -3.1867 0.6740 -0.0000 -0.0000 -12.0639 -5.2234 -1.6858 5.3564 -0.0000 0.0000 -3.5345 3.1296 1.6167 1.6810 -0.0000 0.0000 -10.9631 7.2238 -12.9260 10.9932 -0.0000 -0.0000 -13.5891 -0.8484 -0.0624 22.1223 -16.6043 -1.6318 -26.1525 -18.1753 82.4608 140.6658 0.0000 -55.7171 -16.4290 22.2374 37.9240 32.8623 0.0000 -24.3270 4.1829 21.6963 13.4854 -4.0714 -12.3599 -88.9677 -15.7482 -0.0000 10.3048 -0.0208 -0.1993 -5.9708 33.1476 -0.0000 26.2537 10.1641 -8.1493 -3.2030
 -3.2013 33.0901 -2.7539 9.9289 -3.6810 3.1046 -3.8053 -5.1565 -3.1819 0.6725 -0.0000 0.0000 -12.0677 -5.2428 -1.6702 5.3640 0.0000 -0.0000 -3.5334 3.1135 1.6222 1.6712 -0.0000 0.0000 -10.9581 7.2220 -12.9324 10.9862 -0.0000 -0.0000 -13.5929 -0.8561 -0.0622 22.1575 -16.6030 -1.6319 -26.1951 -18.2490 82.4916 140.4905 0.0000 -55.9508 -16.3565 22.2458 37.7843 32.8623 0.0000 -24.3270 4.1784 21.6960 13.4749 -4.0589 -12.3230 -88.9346 -15.7403 -0.0000 10.2554 -0.0241 -0.2320 -5.9290 33.1476 -0.0000 26.2537 10.1710 -8.1944 -3.2597
 -3.2022 33.0898 -2.7537 9.9309 -3.6767 3.1010 -3.7995 -5.1492 -3.1764 0.6606 0.0000 -0.0000 -12.0653 -5.2551 -1.6770 5.3717 -0.0000 0.0000 -3.5309 3.0936 1.6278 1.6615 0.0000 0.0000 -10.9520 7.2295 -12.9336 10.9960 -0.0000 0.0000 -13.5954 -0.8551 -0.0628 22.1508 -16.5721 -1.6280 -26.1582 -18.2971 82.4588 140.3337 0.0000 -56.1360 -16.4302 22.4134 37.7186 32.8623 0.0000 -24.3270 4.1719 21.7012 13.4681 -4.0594 -12.3018 -88.9090 -15.7136 -0.0000 10.2033 -0.0250 -0.2421 -5.8878 33.1476 -0.0000 26.2537 10.1729 -8.2551 -3.3076
 -3.2029 33.0900 -2.7530 9.9313 -3.6758 3.0998 -3.7952 -5.1401 -3.1737 0.6565 0.0000 -0.0000 -12.0593 -5.2585 -1.6963 5.3832 -0.0000 0.0000 -3.5234 3.1067 1.6289 1.6494 -0.0000 -0.0000 -10.9444 7.2224 -12.9581 10.9266 0.0000 0.0000 -13.5965 -0.8487 -0.0672 22.1854 -16.5535 -1.6066 -26.1688 -18.3756 82.4528 140.1226 0.0000 -56.3513 -16.4194 22.4991 37.5990 32.8623 0.0000 -24.3270 4.1728 21.7133 13.4562 -4.0741 -12.2885 -88.8810 -15.6824 -0.0000 10.1769 -0.0230 -0.2230 -5.8814 33.1476 -0.0000 26.2537 10.1813 -8.2999 -3.3646
 -3.2037 33.0900 -2.7516 9.9309 -3.6773 3.0983 -3.7902 -5.1443 -3.1709 0.6495 -0.0000 0.0000 -12.0569 -5.2572 -1.6730 5.3932 -0.0000 0.0000 -3.5145 3.1237 1.6310 1.6369 0.0000 0.0000 -10.9417 7.2126 -12.9528 10.9484 0.0000 0.0000 -13.6049 -0.8426 -0.0688 22.1936 -16.5319 -1.5969 -26.1467 -18.4324 82.4568 139.8962 0.0000 -56.5815 -16.4196 22.5688 37.5181 32.8623 0.0000 -24.3270 4.1840 21.7184 13.4441 -4.0820 -12.2735 -88.8569 -15.6547 -0.0000 10.1466 -0.0231 -0.2255 -5.8565 33.1476 -0.0000 26.2537 10.1932 -8.3472 -3.4097
 -3.2049 33.0900 -2.7504 9.9302 -3.6745 3.0937 -3.7858 -5.1711 -3.1653 0.6451 -0.0000 0.0000 -12.0527 -5.2272 -1.6870 5.3830 0.0000 0.0000 -3.5081 3.1304 1.6354 1.6278 0.0000 -0.0000 -10.9413 7.2007 -12.9431 10.9511 -0.0000 -0.0000 -13.6110 -0.8385 -0.0709 22.2198 -16.5146 -1.5769 -26.1480 -18.5044 82.4583 139.6757 0.0000 -56.7724 -16.2915 22.6133 37.2380 32.8623 0.0000 -24.3270 4.1873 21.7273 13.4325 -4.0904 -12.2435 -88.8351 -15.6238 -0.0000 10.1510 -0.0229 -0.2238 -5.8520 33.1476 -0.0000 26.2537 10.1957 -8.3811 -3.4412
 -3.2057 33.0901 -2.7492 9.9301 -3.6805 3.0905 -3.7832 -5.1612 -3.1609 0.6446 -0.0000 0.0000 -12.0426 -5.2348 -1.6551 5.3193 -0.0000 0.0000 -3.5010 3.1489 1.6412 1.6183 -0.0000 -0.0000 -10.9361 7.1849 -12.9453 10.9411 0.0000 0.0000 -13.6156 -0.8206 -0.0705 22.2125 -16.5070 -1.5654 -26.1150 -18.5589 82.4546 139.4394 0.0000 -56.9422 -16.1916 22.6754 36.9873 32.8623 0.0000 -24.3270 4.1896 21.7318 13.4204 -4.0962 -12.2233 -88.8132 -15.5950 -0.0000 10.1460 -0.0250 -0.2441 -5.8551 33.1476 -0.0000 26.2537 10.2015 -8.4240 -3.4841
 -3.2074 33.0900 -2.7488 9.9309 -3.6827 3.0841 -3.7805 -5.1652 -3.1516 0.6402 -0.0000 0.0000 -12.0442 -5.2224 -1.6847 5.3891 -0.0000 -0.0000 -3.5011 3.1619 1.6497 1.6141 -0.0000 0.0000 -10.9376 7.1830 -12.9438 10.9734 -0.0000 0.0000 -13.6162 -0.7981 -0.0726 22.2277 -16.4944 -1.5449 -26.0647 -18.5669 82.4119 139.2204 0.0000 -57.0084 -16.3018 22.8461 36.9890 32.8623 0.0000 -24.3270 4.1800 21.7266 13.4182 -4.0954 -12.2065 -88.7945 -15.5648 -0.0000 10.1532 -0.0271 -0.2631 -5.8719 33.1476 -0.0000 26.2537 10.1955 -8.4802 -3.5143
 -3.2091 33.0895 -2.7477 9.9332 -3.6857 3.0820 -3.7772 -5.1702 -3.1457 0.6310 0.0000 -0.0000 -12.0417 -5.2188 -1.6766 5.3636 -0.0000 0.0000 -3.5008 3.1741 1.6546 1.6157 0.0000 0.0000 -10.9441 7.1736 -12.9524 10.9501 -0.0000 -0.0000 -13.6221 -0.7864 -0.0807 22.2432 -16.4752 -1.5257 -26.0665 -18.6400 82.4472 139.0024 0.0000 -57.1164 -16.1173 22.7887 36.7241 32.8623 0.0000 -24.3270 4.1788 21.7379 13.4171 -4.0931 -12.1795 -88.7815 -15.5537 -0.0000 10.1618 -0.0244 -0.2367 -5.8926 33.1476 -0.0000 26.2537 10.1824 -8.5116 -3.5304
 -3.2101 33.0898 -2.7473 9.9351 -3.6926 3.0816 -3.7794 -5.1696 -3.1433 0.6311 0.0000 0.0000 -12.0350 -5.2173 -1.6620 5.3582 0.0000 0.0000 -3.5028 3.1874 1.6545 1.6195 -0.0000 0.0000 -10.9476 7.1759 -12.9282 10.9546 -0.0000 0.0000 -13.6238 -0.7601 -0.0779 22.0983 -16.4754 -1.5549 -25.8760 -18.6015 82.4078 138.8133 0.0000 -57.1046 -16.1075 22.9001 36.5798 32.8623 0.0000 -24.3270 4.1807 21.7337 13.3964 -4.0952 -12.1490 -88.7595 -15.5189 -0.0000 10.1708 -0.0274 -0.2643 -5.9176 33.1476 -0.0000 26.2537 10.1786 -8.5509 -3.5857
 -3.2127 33.0895 -2.7465 9.9339 -3.6895 3.0757 -3.7752 -5.1820 -3.1332 0.6300 -0.0000 0.0000 -12.0316 -5.2007 -1.6807 5.3432 0.0000 0.0000 -3.5092 3.2174 1.6649 1.6306 0.0000 -0.0000 -10.9514 7.1454 -12.9438 10.9220 -0.0000 -0.0000 -13.6204 -0.7464 -0.0819 22.0944 -16.4673 -1.5429 -25.8328 -18.6015 82.4034 138.6466 0.0000 -57.0420 -16.0570 22.9828 36.3956 32.8623 0.0000 -24.3270 4.1792 21.7363 13.3910 -4.0916 -12.1457 -88.7435 -15.5072 -0.0000 10.1695 -0.0261 -0.2506 -5.9352 33.1476 -0.0000 26.2537 10.1466 -8.5731 -3.6059
 -3.2146 33.0891 -2.7460 9.9382 -3.6944 3.0722 -3.7796 -5.1793 -3.1260 0.6346 -0.0000 -0.0000 -12.0356 -5.1966 -1.6896 5.3283 -0.0000 -0.0000 -3.5151 3.2213 1.6705 1.6388 0.0000 0.0000 -10.9619 7.1535 -12.9398 10.9222 -0.0000 -0.0000 -13.6200 -0.7178 -0.0855 22.0471 -16.4647 -1.5506 -25.7478 -18.6077 82.4049 138.4721 0.0000 -57.0757 -15.9886 22.9754 36.2808 32.8623 0.0000 -24.3270 4.1777 21.7371 13.3887 -4.0904 -12.1403 -88.7365 -15.4885 -0.0000 10.1548 -0.0289 -0.2770 -5.9571 33.1476 -0.0000 26.2537 10.1142 -8.6076 -3.6249
 -3.2165 33.0892 -2.7452 9.9331 -3.7041 3.0700 -3.7768 -5.1773 -3.1206 0.6400 -0.0000 0.0000 -12.0418 -5.1944 -1.6725 5.3537 -0.0000 0.0000 -3.5077 3.2325 1.6764 1.6369 0.0000 -0.0000 -10.9686 7.1497 -12.9098 11.0198 -0.0000 -0.0000 -13.6077 -0.6932 -0.0943 22.0045 -16.4155 -1.5484 -25.6494 -18.6334 82.3705 138.3354 0.0000 -57.0923 -16.0016 22.9899 36.2880 32.8623 0.0000 -24.3270 4.1684 21.7503 13.3884 -4.0909 -12.1440 -88.7291 -15.4675 -0.0000 10.1579 -0.0235 -0.2248 -5.9740 33.1476 -0.0000 26.2537 10.0942 -8.6379 -3.6410
 -3.2192 33.0884 -2.7440 9.9360 -3.6946 3.0698 -3.7724 -5.1693 -3.1164 0.6362 -0.0000 -0.0000 -12.0552 -5.2034 -1.6879 5.4118 -0.0000 0.0000 -3.5147 3.2232 1.6815 1.6445 -0.0000 -0.0000 -10.9562 7.1602 -12.9717 10.9588 0.0000 -0.0000 -13.6092 -0.6783 -0.1135 22.0314 -16.4056 -1.5233 -25.6245 -18.6225 82.3646 138.1962 0.0000 -57.0048 -15.8686 23.0178 36.0169 32.8623 0.0000 -24.3270 4.1674 21.7535 13.4051 -4.0872 -12.1320 -88.7402 -15.4558 -0.0000 10.1562 -0.0221 -0.2119 -5.9515 33.1476 -0.0000 26.2537 10.0543 -8.6490 -3.6267
 -3.2202 33.0879 -2.7428 9.9361 -3.6907 3.0735 -3.7660 -5.1575 -3.1184 0.6292 0.0000 0.0000 -12.0540 -5.2194 -1.6979 5.3758 -0.0000 -0.0000 -3.5148 3.2196 1.6771 1.6517 -0.0000 0.0000 -10.9781 7.1586 -12.9248 11.0006 0.0000 0.0000 -13.6035 -0.6629 -0.1261 22.0610 -16.3996 -1.5262 -25.6415 -18.7133 82.4411 138.0095 0.0000 -57.0999 -15.7304 22.8702 35.9317 32.8623 0.0000 -24.3270 4.1689 21.7651 13.4042 -4.0827 -12.1123 -88.7439 -15.4548 -0.0000 10.1616 -0.0210 -0.2011 -5.9500 33.1476 -0.0000 26.2537 10.0144 -8.6635 -3.6338
 -3.2217 33.0875 -2.7406 9.9172 -3.6898 3.0669 -3.7462 -5.1562 -3.1113 0.6392 -0.0000 0.0000 -12.0577 -5.2219 -1.6715 5.3385 0.0000 -0.0000 -3.4946 3.2169 1.6847 1.6553 0.0000 -0.0000 -10.9762 7.1570 -12.9397 10.9185 -0.0000 -0.0000 -13.5746 -0.6312 -0.1310 22.1176 -16.3998 -1.4903 -25.6628 -18.7410 82.4344 137.8553 0.0000 -57.1010 -15.6004 22.8060 35.7667 32.8623 0.0000 -24.3270 4.1160 21.7612 13.4268 -4.0405 -12.1189 -88.7575 -15.4359 -0.0000 10.1553 -0.0229 -0.2206 -5.9164 33.1476 -0.0000 26.2537 9.9710 -8.6891 -3.6281
